<svg height="3678" width="720" xmlns="http://www.w3.org/2000/svg">
<rect height="3678" fill="#555" width="720"></rect>
<text fill="#7f7" font-family="Courier New" font-size="12" xml:space="preserve">
<tspan x="10" y="26">28 megabytes installed</tspan>
<tspan x="10" y="42"></tspan>
<tspan x="10" y="58">node_modules</tspan>
<tspan x="10" y="74">└─┬ peerflix@0.36.2 </tspan>
<tspan x="10" y="90">  ├─┬ airplayer@2.0.0 </tspan>
<tspan x="10" y="106">  │ ├─┬ airplay-protocol@2.0.2 </tspan>
<tspan x="10" y="122">  │ │ ├─┬ bplist-creator@0.0.6 </tspan>
<tspan x="10" y="138">  │ │ │ └── stream-buffers@2.2.0 </tspan>
<tspan x="10" y="154">  │ │ ├─┬ bplist-parser@0.1.1 </tspan>
<tspan x="10" y="170">  │ │ │ └── big-integer@1.6.20 </tspan>
<tspan x="10" y="186">  │ │ ├─┬ concat-stream@1.6.0 </tspan>
<tspan x="10" y="202">  │ │ │ ├─┬ readable-stream@2.2.9 </tspan>
<tspan x="10" y="218">  │ │ │ │ ├── buffer-shims@1.0.0 </tspan>
<tspan x="10" y="234">  │ │ │ │ ├── core-util-is@1.0.2 </tspan>
<tspan x="10" y="250">  │ │ │ │ ├── isarray@1.0.0 </tspan>
<tspan x="10" y="266">  │ │ │ │ ├── process-nextick-args@1.0.7 </tspan>
<tspan x="10" y="282">  │ │ │ │ └── string_decoder@1.0.0 </tspan>
<tspan x="10" y="298">  │ │ │ └── typedarray@0.0.6 </tspan>
<tspan x="10" y="314">  │ │ ├─┬ plist@1.2.0 </tspan>
<tspan x="10" y="330">  │ │ │ ├── base64-js@0.0.8 </tspan>
<tspan x="10" y="346">  │ │ │ ├── util-deprecate@1.0.2 </tspan>
<tspan x="10" y="362">  │ │ │ ├─┬ xmlbuilder@4.0.0 </tspan>
<tspan x="10" y="378">  │ │ │ │ └── lodash@3.10.1 </tspan>
<tspan x="10" y="394">  │ │ │ └── xmldom@0.1.27 </tspan>
<tspan x="10" y="410">  │ │ └─┬ reverse-http@1.2.0 </tspan>
<tspan x="10" y="426">  │ │   └─┬ consume-http-header@1.0.0 </tspan>
<tspan x="10" y="442">  │ │     ├── consume-until@1.0.0 </tspan>
<tspan x="10" y="458">  │ │     └─┬ http-headers@3.0.1 </tspan>
<tspan x="10" y="474">  │ │       └── next-line@1.1.0 </tspan>
<tspan x="10" y="490">  │ ├─┬ appendable-cli-menu@2.0.0 </tspan>
<tspan x="10" y="506">  │ │ └── single-line-log@1.1.2 </tspan>
<tspan x="10" y="522">  │ ├─┬ bonjour@3.5.0 </tspan>
<tspan x="10" y="538">  │ │ ├── array-flatten@2.1.1 </tspan>
<tspan x="10" y="554">  │ │ ├── deep-equal@1.0.1 </tspan>
<tspan x="10" y="570">  │ │ ├── dns-equal@1.0.0 </tspan>
<tspan x="10" y="586">  │ │ ├─┬ dns-txt@2.0.2 </tspan>
<tspan x="10" y="602">  │ │ │ └── buffer-indexof@1.1.0 </tspan>
<tspan x="10" y="618">  │ │ ├─┬ multicast-dns@6.1.1 </tspan>
<tspan x="10" y="634">  │ │ │ ├─┬ dns-packet@1.1.1 </tspan>
<tspan x="10" y="650">  │ │ │ │ └── safe-buffer@5.0.1 </tspan>
<tspan x="10" y="666">  │ │ │ └── thunky@0.1.0 </tspan>
<tspan x="10" y="682">  │ │ └── multicast-dns-service-types@1.1.0 </tspan>
<tspan x="10" y="698">  │ ├─┬ internal-ip@1.2.0 </tspan>
<tspan x="10" y="714">  │ │ └─┬ meow@3.7.0 </tspan>
<tspan x="10" y="730">  │ │   ├─┬ camelcase-keys@2.1.0 </tspan>
<tspan x="10" y="746">  │ │   │ └── camelcase@2.1.1 </tspan>
<tspan x="10" y="762">  │ │   ├── decamelize@1.2.0 </tspan>
<tspan x="10" y="778">  │ │   ├─┬ loud-rejection@1.6.0 </tspan>
<tspan x="10" y="794">  │ │   │ ├─┬ currently-unhandled@0.4.1 </tspan>
<tspan x="10" y="810">  │ │   │ │ └── array-find-index@1.0.2 </tspan>
<tspan x="10" y="826">  │ │   │ └── signal-exit@3.0.2 </tspan>
<tspan x="10" y="842">  │ │   ├── map-obj@1.0.1 </tspan>
<tspan x="10" y="858">  │ │   ├─┬ normalize-package-data@2.3.6 </tspan>
<tspan x="10" y="874">  │ │   │ ├── hosted-git-info@2.4.2 </tspan>
<tspan x="10" y="890">  │ │   │ ├─┬ is-builtin-module@1.0.0 </tspan>
<tspan x="10" y="906">  │ │   │ │ └── builtin-modules@1.1.1 </tspan>
<tspan x="10" y="922">  │ │   │ ├── semver@5.3.0 </tspan>
<tspan x="10" y="938">  │ │   │ └─┬ validate-npm-package-license@3.0.1 </tspan>
<tspan x="10" y="954">  │ │   │   ├─┬ spdx-correct@1.0.2 </tspan>
<tspan x="10" y="970">  │ │   │   │ └── spdx-license-ids@1.2.2 </tspan>
<tspan x="10" y="986">  │ │   │   └── spdx-expression-parse@1.0.4 </tspan>
<tspan x="10" y="1002">  │ │   ├─┬ read-pkg-up@1.0.1 </tspan>
<tspan x="10" y="1018">  │ │   │ ├─┬ find-up@1.1.2 </tspan>
<tspan x="10" y="1034">  │ │   │ │ └── path-exists@2.1.0 </tspan>
<tspan x="10" y="1050">  │ │   │ └─┬ read-pkg@1.1.0 </tspan>
<tspan x="10" y="1066">  │ │   │   ├─┬ load-json-file@1.1.0 </tspan>
<tspan x="10" y="1082">  │ │   │   │ ├── graceful-fs@4.1.11 </tspan>
<tspan x="10" y="1098">  │ │   │   │ ├─┬ parse-json@2.2.0 </tspan>
<tspan x="10" y="1114">  │ │   │   │ │ └─┬ error-ex@1.3.1 </tspan>
<tspan x="10" y="1130">  │ │   │   │ │   └── is-arrayish@0.2.1 </tspan>
<tspan x="10" y="1146">  │ │   │   │ ├── pify@2.3.0 </tspan>
<tspan x="10" y="1162">  │ │   │   │ └─┬ strip-bom@2.0.0 </tspan>
<tspan x="10" y="1178">  │ │   │   │   └── is-utf8@0.2.1 </tspan>
<tspan x="10" y="1194">  │ │   │   └── path-type@1.1.0 </tspan>
<tspan x="10" y="1210">  │ │   ├─┬ redent@1.0.0 </tspan>
<tspan x="10" y="1226">  │ │   │ ├─┬ indent-string@2.1.0 </tspan>
<tspan x="10" y="1242">  │ │   │ │ └─┬ repeating@2.0.1 </tspan>
<tspan x="10" y="1258">  │ │   │ │   └── is-finite@1.0.2 </tspan>
<tspan x="10" y="1274">  │ │   │ └─┬ strip-indent@1.0.1 </tspan>
<tspan x="10" y="1290">  │ │   │   └── get-stdin@4.0.1 </tspan>
<tspan x="10" y="1306">  │ │   └── trim-newlines@1.0.0 </tspan>
<tspan x="10" y="1322">  │ ├── minimist@1.2.0 </tspan>
<tspan x="10" y="1338">  │ └── server-destroy@1.0.1 </tspan>
<tspan x="10" y="1354">  ├── clivas@0.2.0 </tspan>
<tspan x="10" y="1370">  ├─┬ inquirer@1.2.3 </tspan>
<tspan x="10" y="1386">  │ ├── ansi-escapes@1.4.0 </tspan>
<tspan x="10" y="1402">  │ ├─┬ chalk@1.1.3 </tspan>
<tspan x="10" y="1418">  │ │ ├── ansi-styles@2.2.1 </tspan>
<tspan x="10" y="1434">  │ │ ├── escape-string-regexp@1.0.5 </tspan>
<tspan x="10" y="1450">  │ │ ├── has-ansi@2.0.0 </tspan>
<tspan x="10" y="1466">  │ │ └── supports-color@2.0.0 </tspan>
<tspan x="10" y="1482">  │ ├─┬ cli-cursor@1.0.2 </tspan>
<tspan x="10" y="1498">  │ │ └─┬ restore-cursor@1.0.1 </tspan>
<tspan x="10" y="1514">  │ │   ├── exit-hook@1.1.1 </tspan>
<tspan x="10" y="1530">  │ │   └── onetime@1.1.0 </tspan>
<tspan x="10" y="1546">  │ ├── cli-width@2.1.0 </tspan>
<tspan x="10" y="1562">  │ ├─┬ external-editor@1.1.1 </tspan>
<tspan x="10" y="1578">  │ │ ├── extend@3.0.0 </tspan>
<tspan x="10" y="1594">  │ │ ├─┬ spawn-sync@1.0.15 </tspan>
<tspan x="10" y="1610">  │ │ │ └── os-shim@0.1.3 </tspan>
<tspan x="10" y="1626">  │ │ └─┬ tmp@0.0.29 </tspan>
<tspan x="10" y="1642">  │ │   └── os-tmpdir@1.0.2 </tspan>
<tspan x="10" y="1658">  │ ├─┬ figures@1.7.0 </tspan>
<tspan x="10" y="1674">  │ │ └── object-assign@4.1.1 </tspan>
<tspan x="10" y="1690">  │ ├── lodash@4.17.4 </tspan>
<tspan x="10" y="1706">  │ ├── mute-stream@0.0.6 </tspan>
<tspan x="10" y="1722">  │ ├─┬ pinkie-promise@2.0.1 </tspan>
<tspan x="10" y="1738">  │ │ └── pinkie@2.0.4 </tspan>
<tspan x="10" y="1754">  │ ├─┬ run-async@2.3.0 </tspan>
<tspan x="10" y="1770">  │ │ └── is-promise@2.1.0 </tspan>
<tspan x="10" y="1786">  │ ├── rx@4.1.0 </tspan>
<tspan x="10" y="1802">  │ ├─┬ string-width@1.0.2 </tspan>
<tspan x="10" y="1818">  │ │ ├── code-point-at@1.1.0 </tspan>
<tspan x="10" y="1834">  │ │ └─┬ is-fullwidth-code-point@1.0.0 </tspan>
<tspan x="10" y="1850">  │ │   └── number-is-nan@1.0.1 </tspan>
<tspan x="10" y="1866">  │ ├─┬ strip-ansi@3.0.1 </tspan>
<tspan x="10" y="1882">  │ │ └── ansi-regex@2.1.1 </tspan>
<tspan x="10" y="1898">  │ └── through@2.3.8 </tspan>
<tspan x="10" y="1914">  ├── keypress@0.2.1 </tspan>
<tspan x="10" y="1930">  ├── mime@1.3.4 </tspan>
<tspan x="10" y="1946">  ├── network-address@1.1.2 </tspan>
<tspan x="10" y="1962">  ├── numeral@1.5.6 </tspan>
<tspan x="10" y="1978">  ├── open@0.0.5 </tspan>
<tspan x="10" y="1994">  ├─┬ optimist@0.6.1 </tspan>
<tspan x="10" y="2010">  │ ├── minimist@0.0.10 </tspan>
<tspan x="10" y="2026">  │ └── wordwrap@0.0.3 </tspan>
<tspan x="10" y="2042">  ├─┬ parse-torrent@5.8.3 </tspan>
<tspan x="10" y="2058">  │ ├── blob-to-buffer@1.2.6 </tspan>
<tspan x="10" y="2074">  │ ├── get-stdin@5.0.1 </tspan>
<tspan x="10" y="2090">  │ ├─┬ magnet-uri@5.1.6 </tspan>
<tspan x="10" y="2106">  │ │ ├── thirty-two@1.0.2 </tspan>
<tspan x="10" y="2122">  │ │ └── uniq@1.0.1 </tspan>
<tspan x="10" y="2138">  │ ├─┬ parse-torrent-file@4.0.2 </tspan>
<tspan x="10" y="2154">  │ │ ├── bencode@0.11.0 </tspan>
<tspan x="10" y="2170">  │ │ └─┬ simple-sha1@2.1.0 </tspan>
<tspan x="10" y="2186">  │ │   └── rusha@0.8.5 </tspan>
<tspan x="10" y="2202">  │ └─┬ simple-get@2.5.1 </tspan>
<tspan x="10" y="2218">  │   ├── simple-concat@1.0.0 </tspan>
<tspan x="10" y="2234">  │   └── unzip-response@2.0.1 </tspan>
<tspan x="10" y="2250">  ├─┬ pump@1.0.2 </tspan>
<tspan x="10" y="2266">  │ ├── end-of-stream@1.4.0 </tspan>
<tspan x="10" y="2282">  │ └─┬ once@1.4.0 </tspan>
<tspan x="10" y="2298">  │   └── wrappy@1.0.2 </tspan>
<tspan x="10" y="2314">  ├── range-parser@1.2.0 </tspan>
<tspan x="10" y="2330">  ├─┬ rc@1.2.1 </tspan>
<tspan x="10" y="2346">  │ ├── deep-extend@0.4.1 </tspan>
<tspan x="10" y="2362">  │ ├── ini@1.3.4 </tspan>
<tspan x="10" y="2378">  │ └── strip-json-comments@2.0.1 </tspan>
<tspan x="10" y="2394">  ├─┬ torrent-stream@1.0.3 </tspan>
<tspan x="10" y="2410">  │ ├── bitfield@0.1.0 </tspan>
<tspan x="10" y="2426">  │ ├── bncode@0.5.3 </tspan>
<tspan x="10" y="2442">  │ ├─┬ end-of-stream@0.1.5 </tspan>
<tspan x="10" y="2458">  │ │ └── once@1.3.3 </tspan>
<tspan x="10" y="2474">  │ ├─┬ fs-chunk-store@1.6.5 </tspan>
<tspan x="10" y="2490">  │ │ ├─┬ mkdirp@0.5.1 </tspan>
<tspan x="10" y="2506">  │ │ │ └── minimist@0.0.8 </tspan>
<tspan x="10" y="2522">  │ │ ├─┬ random-access-file@1.6.1 </tspan>
<tspan x="10" y="2538">  │ │ │ ├── buffer-alloc-unsafe@1.0.0 </tspan>
<tspan x="10" y="2554">  │ │ │ ├─┬ mkdirp@0.5.1 </tspan>
<tspan x="10" y="2570">  │ │ │ │ └── minimist@0.0.8 </tspan>
<tspan x="10" y="2586">  │ │ │ └── thunky@1.0.2 </tspan>
<tspan x="10" y="2602">  │ │ ├── randombytes@2.0.3 </tspan>
<tspan x="10" y="2618">  │ │ ├── run-parallel@1.1.6 </tspan>
<tspan x="10" y="2634">  │ │ └── thunky@1.0.2 </tspan>
<tspan x="10" y="2650">  │ ├── hat@0.0.3 </tspan>
<tspan x="10" y="2666">  │ ├── immediate-chunk-store@1.0.8 </tspan>
<tspan x="10" y="2682">  │ ├─┬ ip-set@1.0.1 </tspan>
<tspan x="10" y="2698">  │ │ └── ip@1.1.5 </tspan>
<tspan x="10" y="2714">  │ ├── mkdirp@0.3.5 </tspan>
<tspan x="10" y="2730">  │ ├─┬ parse-torrent@4.1.0 </tspan>
<tspan x="10" y="2746">  │ │ ├─┬ magnet-uri@4.2.3 </tspan>
<tspan x="10" y="2762">  │ │ │ ├── flatten@0.0.1 </tspan>
<tspan x="10" y="2778">  │ │ │ └── thirty-two@0.0.2 </tspan>
<tspan x="10" y="2794">  │ │ └─┬ parse-torrent-file@2.1.4 </tspan>
<tspan x="10" y="2810">  │ │   └── bencode@0.7.0 </tspan>
<tspan x="10" y="2826">  │ ├─┬ peer-wire-swarm@0.12.1 </tspan>
<tspan x="10" y="2842">  │ │ ├── fifo@0.1.4 </tspan>
<tspan x="10" y="2858">  │ │ ├─┬ peer-wire-protocol@0.7.0 </tspan>
<tspan x="10" y="2874">  │ │ │ ├── bncode@0.2.3 </tspan>
<tspan x="10" y="2890">  │ │ │ └─┬ readable-stream@1.1.14 </tspan>
<tspan x="10" y="2906">  │ │ │   ├── isarray@0.0.1 </tspan>
<tspan x="10" y="2922">  │ │ │   └── string_decoder@0.10.31 </tspan>
<tspan x="10" y="2938">  │ │ ├── speedometer@0.1.4 </tspan>
<tspan x="10" y="2954">  │ │ └─┬ utp@0.0.7 </tspan>
<tspan x="10" y="2970">  │ │   └── cyclist@0.1.1 </tspan>
<tspan x="10" y="2986">  │ ├─┬ rimraf@2.6.1 </tspan>
<tspan x="10" y="3002">  │ │ └─┬ glob@7.1.1 </tspan>
<tspan x="10" y="3018">  │ │   ├── fs.realpath@1.0.0 </tspan>
<tspan x="10" y="3034">  │ │   ├── inflight@1.0.6 </tspan>
<tspan x="10" y="3050">  │ │   ├─┬ minimatch@3.0.3 </tspan>
<tspan x="10" y="3066">  │ │   │ └─┬ brace-expansion@1.1.7 </tspan>
<tspan x="10" y="3082">  │ │   │   ├── balanced-match@0.4.2 </tspan>
<tspan x="10" y="3098">  │ │   │   └── concat-map@0.0.1 </tspan>
<tspan x="10" y="3114">  │ │   └── path-is-absolute@1.0.1 </tspan>
<tspan x="10" y="3130">  │ ├─┬ torrent-discovery@5.4.0 </tspan>
<tspan x="10" y="3146">  │ │ ├─┬ bittorrent-dht@6.4.2 </tspan>
<tspan x="10" y="3162">  │ │ │ ├── bencode@0.7.0 </tspan>
<tspan x="10" y="3178">  │ │ │ ├── buffer-equals@1.0.4 </tspan>
<tspan x="10" y="3194">  │ │ │ ├─┬ k-bucket@0.6.0 </tspan>
<tspan x="10" y="3210">  │ │ │ │ └── buffer-equal@0.0.1 </tspan>
<tspan x="10" y="3226">  │ │ │ ├─┬ k-rpc@3.7.0 </tspan>
<tspan x="10" y="3242">  │ │ │ │ ├── k-bucket@2.0.1 </tspan>
<tspan x="10" y="3258">  │ │ │ │ └── k-rpc-socket@1.6.2 </tspan>
<tspan x="10" y="3274">  │ │ │ └── lru@2.0.1 </tspan>
<tspan x="10" y="3290">  │ │ ├─┬ bittorrent-tracker@7.7.0 </tspan>
<tspan x="10" y="3306">  │ │ │ ├── bencode@0.8.0 </tspan>
<tspan x="10" y="3322">  │ │ │ ├── bn.js@4.11.6 </tspan>
<tspan x="10" y="3338">  │ │ │ ├─┬ compact2string@1.4.0 </tspan>
<tspan x="10" y="3354">  │ │ │ │ └── ipaddr.js@1.3.0 </tspan>
<tspan x="10" y="3370">  │ │ │ ├── random-iterate@1.0.1 </tspan>
<tspan x="10" y="3386">  │ │ │ ├── run-series@1.1.4 </tspan>
<tspan x="10" y="3402">  │ │ │ ├─┬ simple-peer@6.4.4 </tspan>
<tspan x="10" y="3418">  │ │ │ │ └── get-browser-rtc@1.0.2 </tspan>
<tspan x="10" y="3434">  │ │ │ ├─┬ simple-websocket@4.3.1 </tspan>
<tspan x="10" y="3450">  │ │ │ │ └─┬ ws@2.2.3 </tspan>
<tspan x="10" y="3466">  │ │ │ │   └── ultron@1.1.0 </tspan>
<tspan x="10" y="3482">  │ │ │ ├─┬ string2compact@1.2.2 </tspan>
<tspan x="10" y="3498">  │ │ │ │ └── addr-to-ip-port@1.4.2 </tspan>
<tspan x="10" y="3514">  │ │ │ └─┬ ws@1.1.4 </tspan>
<tspan x="10" y="3530">  │ │ │   ├── options@0.0.6 </tspan>
<tspan x="10" y="3546">  │ │ │   └── ultron@1.0.2 </tspan>
<tspan x="10" y="3562">  │ │ ├─┬ debug@2.6.3 </tspan>
<tspan x="10" y="3578">  │ │ │ └── ms@0.7.2 </tspan>
<tspan x="10" y="3594">  │ │ ├── inherits@2.0.3 </tspan>
<tspan x="10" y="3610">  │ │ └── re-emitter@1.1.3 </tspan>
<tspan x="10" y="3626">  │ └── torrent-piece@1.1.1 </tspan>
<tspan x="10" y="3642">  ├── windows-no-runnable@0.0.6 </tspan>
<tspan x="10" y="3658">  └── xtend@4.0.1</tspan>
</text>
</svg>
